<svg xmlns="http://www.w3.org/2000/svg" viewBox="0 0 107 21" >
	<path d="M22.9484 13.5683H12.0322C12.4158 15.6001 13.8806 16.8743 15.6245 16.8743C16.7405 16.8743 18.1704 16.7366 19.1818 15.0147L22.5648 15.7379C21.3093 18.6995 18.7284 20.1115 15.5896 20.1115C11.5439 20.1115 8.23071 17.081 8.23071 12.6041C8.23071 8.12719 11.5439 5.06226 15.6593 5.06226C19.4957 5.06226 22.8089 7.98945 22.9484 12.2941V13.5683ZM12.1368 10.9166H19.0772C18.5889 9.09145 17.1939 8.29938 15.6942 8.29938C14.2294 8.29938 12.5902 9.16032 12.1368 10.9166Z" fill="#394951"></path>
	<path d="M63.5096 19.6638H59.7081V18.4585C58.5571 19.5261 56.9877 20.1115 54.9649 20.1115C51.3029 20.1115 47.9199 17.081 47.9199 12.6041C47.9199 8.12726 51.3029 5.06232 54.9649 5.06232C56.9877 5.06232 58.5571 5.64775 59.7081 6.71532V0H63.5096V19.6638ZM59.7081 12.5697C59.7081 9.95245 57.6504 8.29944 55.6276 8.29944C53.3257 8.29944 51.5819 9.95245 51.5819 12.5697C51.5819 15.1869 53.3257 16.8055 55.6276 16.8055C57.6504 16.8055 59.7081 15.1869 59.7081 12.5697Z" fill="#394951"></path>
	<path d="M94.5842 5.51001H89.3179V8.60939H94.5842C96.049 8.60939 97.0255 9.22926 97.0255 10.6412V10.8823H92.8752C89.2481 10.8823 87.1904 12.7075 87.1904 15.428C87.1904 18.2175 89.3876 20.0771 92.666 20.0771C94.6191 20.0771 96.049 19.4228 97.0255 18.493V19.6638H100.653V10.3657C100.653 7.02526 98.2462 5.57888 94.5842 5.51001ZM97.0255 13.9128C97.0255 15.738 95.2817 17.081 93.2589 17.081C91.7941 17.081 90.8175 16.3923 90.8175 15.3591C90.8175 14.3949 91.6197 13.7406 92.8404 13.7406H97.0255V13.9128Z" fill="#394951"></path>
	<path d="M72.1237 5.51001H66.8574V8.60939H72.1237C73.5885 8.60939 74.565 9.22926 74.565 10.6412V10.8823H70.4148C66.7877 10.8823 64.73 12.7075 64.73 15.428C64.73 18.2175 66.9272 20.0771 70.2055 20.0771C72.1586 20.0771 73.5885 19.4228 74.565 18.493V19.6638H78.1922V10.3657C78.1922 7.02526 75.7857 5.57888 72.1237 5.51001ZM74.565 13.9128C74.565 15.738 72.8212 17.081 70.7984 17.081C69.3336 17.081 68.3571 16.3923 68.3571 15.3591C68.3571 14.3949 69.1592 13.7406 70.3799 13.7406H74.565V13.9128Z" fill="#394951"></path>
	<path d="M40.561 5.51001H35.2947V8.60939H40.561C42.0258 8.60939 43.0023 9.22926 43.0023 10.6412V10.8823H38.852C35.2249 10.8823 33.1672 12.7075 33.1672 15.428C33.1672 18.2175 35.3644 20.0771 38.6428 20.0771C40.5959 20.0771 42.0258 19.4228 43.0023 18.493V19.6638H46.6294V10.3657C46.6294 7.02526 44.223 5.57888 40.561 5.51001ZM43.0023 13.9128C43.0023 15.738 41.2585 17.081 39.2357 17.081C37.7709 17.081 36.7944 16.3923 36.7944 15.3591C36.7944 14.3949 37.5965 13.7406 38.8172 13.7406H43.0023V13.9128Z" fill="#394951"></path>
	<path d="M33.2718 5.47559C30.9351 5.47559 29.261 6.4054 28.1101 8.0584V5.47559H24.3086V19.6638H28.1101V15.0837C28.1101 11.1233 29.7144 8.64384 33.2369 8.64384H33.4113V5.47559C33.3764 5.47559 33.3066 5.47559 33.2718 5.47559Z" fill="#394951"></path>
	<path d="M7.53325 16.22C6.94035 16.4266 6.34746 16.5644 5.89407 16.5644C4.63853 16.5644 3.8015 15.8412 3.8015 14.1193V8.54044H7.70763V5.4755H3.8015V1.99731H0V8.54044V14.4293C0 18.3207 2.23207 20.077 5.64993 20.077C6.83572 20.077 7.98664 19.836 9.48631 19.0439C8.68416 18.2518 7.95176 17.322 7.53325 16.22Z" fill="#394951"></path>
	<path d="M85.9698 16.5299C85.8303 16.5644 85.6908 16.5644 85.5513 16.5644C84.2958 16.5644 83.4587 15.8412 83.4587 14.1193V8.54044H87.4695V5.4755H83.4587V1.99731H79.6572V8.54044V14.4293C79.6572 18.3207 81.8893 20.077 85.3072 20.077C86.1442 20.077 86.8766 19.9393 87.7485 19.6293C86.5976 18.8373 86.1791 17.5286 85.9698 16.5299Z" fill="#394951"></path>
	<path d="M107 17.4944C107 18.8374 105.954 19.8706 104.489 19.8706C103.024 19.8706 101.978 18.8374 101.978 17.4944C101.978 16.2202 103.024 15.0837 104.489 15.0837C105.954 15.0837 107 16.2202 107 17.4944Z" fill="#F37440"></path>
</svg>